<svg id="Layer_1" data-name="Layer 1" xmlns="http://www.w3.org/2000/svg" viewBox="0 0 138.5 138.5"><defs><style>.cls-1{fill:none;stroke:#333;stroke-miterlimit:10;stroke-width:2.8px;}.cls-2{fill:#333;}</style></defs><circle class="cls-1" cx="69.25" cy="69.25" r="67.85"/><circle class="cls-1" cx="69.25" cy="69.25" r="33.35"/><path class="cls-2" d="M252.26,421.81a4.62,4.62,0,0,1-.37,1.82,3.52,3.52,0,0,1-1,1.34l-1.65-1.44a2.8,2.8,0,0,0,.72-.75,1.47,1.47,0,0,0,.26-.82c0-.77-.43-1.16-1.32-1.18l-3.94-.06-.05,3.17-2,0,.09-5.74,5.8.09a3.15,3.15,0,0,1,3.5,3.6Z" transform="translate(-228.27 -352.01)"/><path class="cls-2" d="M253.51,410.66a4.33,4.33,0,0,1-1.82,2.83,4.17,4.17,0,0,1-3.33.38l-5-1.17.6-2.53,4.87,1.16a2.51,2.51,0,0,0,1.75-.06,1.86,1.86,0,0,0,.59-2.49,2.51,2.51,0,0,0-1.54-.83l-4.87-1.16.59-2.49,4.95,1.18a4.2,4.2,0,0,1,2.81,1.84A4.34,4.34,0,0,1,253.51,410.66Z" transform="translate(-228.27 -352.01)"/><path class="cls-2" d="M257.29,400.43a8.25,8.25,0,0,1-1.25,1.8,5.55,5.55,0,0,1-1.42,1.17l-1.31-1.63a6.3,6.3,0,0,0,1.23-1,5.26,5.26,0,0,0,1-1.31,3.25,3.25,0,0,0,.31-.81,1,1,0,0,0,0-.55.55.55,0,0,0-.27-.31.56.56,0,0,0-.57,0,2.4,2.4,0,0,0-.62.53c-.21.23-.43.5-.67.79a10.33,10.33,0,0,1-.78.85,4.44,4.44,0,0,1-.89.69,2.2,2.2,0,0,1-2.24,0,2.68,2.68,0,0,1-1.12-1.09,3.08,3.08,0,0,1-.33-1.7,5.45,5.45,0,0,1,.67-2.19,7.8,7.8,0,0,1,1-1.48,5.54,5.54,0,0,1,1.24-1.11l1.35,1.59a6.92,6.92,0,0,0-1.07.91,4.57,4.57,0,0,0-.72,1,2.51,2.51,0,0,0-.3.82,1,1,0,0,0,0,.55.69.69,0,0,0,.31.32.56.56,0,0,0,.56,0,2.33,2.33,0,0,0,.59-.53l.68-.8a10.3,10.3,0,0,1,.77-.86,4.68,4.68,0,0,1,.88-.69,2.32,2.32,0,0,1,1-.3,2.37,2.37,0,0,1,1.2.3,2.55,2.55,0,0,1,1.1,1.08,3.06,3.06,0,0,1,.34,1.69A5.54,5.54,0,0,1,257.29,400.43Z" transform="translate(-228.27 -352.01)"/><path class="cls-2" d="M261.86,392.92l-5.47-4.55-1.81,2.17L253,389.22l5.26-6.32,1.58,1.32-1.79,2.16,5.47,4.55Z" transform="translate(-228.27 -352.01)"/><path class="cls-2" d="M271.79,383.3l-4.46-8,3.79-2.11a6,6,0,0,1,2.62-.8,4.24,4.24,0,0,1,2.34.51,4.37,4.37,0,0,1,1.75,1.81,4.47,4.47,0,0,1,.62,2.44,4.36,4.36,0,0,1-.8,2.27,6,6,0,0,1-2.07,1.79Zm1.26-3.07,1.44-.8a3,3,0,0,0,1.05-.92,2.22,2.22,0,0,0,.38-1.2,3,3,0,0,0-1.33-2.38,2.21,2.21,0,0,0-1.21-.31A3.09,3.09,0,0,0,272,375l-1.43.8Z" transform="translate(-228.27 -352.01)"/><path class="cls-2" d="M285,375.14l4.64-1.22.51,1.95L283,377.73l-2.32-8.88,7-1.82.51,1.94-4.48,1.17Zm-1.09-3.46,4.12-1.07.49,1.87-4.12,1.08Z" transform="translate(-228.27 -352.01)"/><path class="cls-2" d="M296.54,375.56a8.28,8.28,0,0,1-2.18-.22,5.61,5.61,0,0,1-1.72-.67l.8-1.94a6.3,6.3,0,0,0,1.44.61,5.27,5.27,0,0,0,1.61.2,3.11,3.11,0,0,0,.86-.12,1,1,0,0,0,.47-.27.55.55,0,0,0,.14-.4.52.52,0,0,0-.3-.48,2.57,2.57,0,0,0-.76-.28l-1-.21a11.38,11.38,0,0,1-1.12-.27,4.17,4.17,0,0,1-1-.45,2.4,2.4,0,0,1-.77-.75,2.27,2.27,0,0,1-.32-1.2,2.64,2.64,0,0,1,.4-1.51,3.09,3.09,0,0,1,1.33-1.11,5.5,5.5,0,0,1,2.24-.48,8.14,8.14,0,0,1,1.78.16,5.29,5.29,0,0,1,1.57.55l-.74,1.95a6.05,6.05,0,0,0-1.31-.5,5,5,0,0,0-1.25-.14,2.7,2.7,0,0,0-.86.14,1,1,0,0,0-.47.31.68.68,0,0,0-.13.42.55.55,0,0,0,.3.47,2.7,2.7,0,0,0,.75.27l1,.2a9.06,9.06,0,0,1,1.12.26,4.15,4.15,0,0,1,1,.44,2.2,2.2,0,0,1,1.08,1.94,2.55,2.55,0,0,1-.41,1.49,3.11,3.11,0,0,1-1.31,1.12A5.4,5.4,0,0,1,296.54,375.56Z" transform="translate(-228.27 -352.01)"/><path class="cls-2" d="M303.59,375.68,305,366.6l2.56.39-1.36,9.07Z" transform="translate(-228.27 -352.01)"/><path class="cls-2" d="M314,378.42a5.65,5.65,0,0,1-1.78-1,4.73,4.73,0,0,1-1.17-1.48,4.58,4.58,0,0,1-.48-1.78,4.74,4.74,0,0,1,.3-1.94,4.91,4.91,0,0,1,1-1.67,4.44,4.44,0,0,1,1.52-1.06,4.58,4.58,0,0,1,1.86-.38,5.8,5.8,0,0,1,2,.37,5.92,5.92,0,0,1,2,1.2,4.24,4.24,0,0,1,1.16,1.75l-2.06.84a3.29,3.29,0,0,0-.69-1.07,2.91,2.91,0,0,0-1.06-.65,3,3,0,0,0-1.07-.2,2.37,2.37,0,0,0-1,.22,2.6,2.6,0,0,0-.78.59,2.79,2.79,0,0,0-.54,1,2.68,2.68,0,0,0-.19,1.06,2.42,2.42,0,0,0,.8,1.75,3,3,0,0,0,.93.54,3.32,3.32,0,0,0,1.13.2,3.55,3.55,0,0,0,1.26-.23l.75,2.21a6,6,0,0,1-2,.19A6.91,6.91,0,0,1,314,378.42Zm2-.88,1.18-3.26,2.16.79-1.3,3.57Z" transform="translate(-228.27 -352.01)"/><path class="cls-2" d="M320.69,381.11l5.25-7.52,1.75,1.22.65,7.9-.83-.57,3.5-5,2.09,1.46-5.26,7.52-1.75-1.23-.65-7.9.83.58-3.5,5Z" transform="translate(-228.27 -352.01)"/><path class="cls-2" d="M336.62,396.77a5.73,5.73,0,0,1-.81-1.88,4.64,4.64,0,0,1,0-1.89,4.43,4.43,0,0,1,.69-1.7,4.82,4.82,0,0,1,1.4-1.37,4.94,4.94,0,0,1,1.82-.73,4.61,4.61,0,0,1,1.85.07,4.66,4.66,0,0,1,1.71.82,5.62,5.62,0,0,1,1.41,1.53,5.88,5.88,0,0,1,.9,2.18,4.36,4.36,0,0,1-.12,2.1l-2.15-.58a3.43,3.43,0,0,0,.09-1.26,2.92,2.92,0,0,0-.45-1.16,2.86,2.86,0,0,0-.74-.8,2.32,2.32,0,0,0-.89-.41,2.54,2.54,0,0,0-1,0,3,3,0,0,0-1,.43,2.77,2.77,0,0,0-.78.74,2.29,2.29,0,0,0-.41.9,2.48,2.48,0,0,0,0,1,2.88,2.88,0,0,0,.42,1,3.47,3.47,0,0,0,.77.85,4,4,0,0,0,1.15.58l-.73,2.21a6,6,0,0,1-1.72-1.06A7,7,0,0,1,336.62,396.77Zm2.11.49,2.91-1.89,1.25,1.93-3.19,2.07Z" transform="translate(-228.27 -352.01)"/><path class="cls-2" d="M341.45,407a4.35,4.35,0,0,1,.07-3.36,4.18,4.18,0,0,1,2.65-2.07L349,400l.81,2.47L345.05,404a2.54,2.54,0,0,0-1.46,1,1.66,1.66,0,0,0-.09,1.37,1.61,1.61,0,0,0,.89,1,2.45,2.45,0,0,0,1.75-.09l4.75-1.56.8,2.43-4.83,1.58a4.21,4.21,0,0,1-3.36-.09A4.41,4.41,0,0,1,341.45,407Z" transform="translate(-228.27 -352.01)"/><path class="cls-2" d="M343.7,416.65l3.87-.28-1.52.72,6.55-4.58.19,2.73-4.74,3.31-.11-1.59,5.16,2.62.18,2.51-7.13-3.59,1.6.46-3.87.28Z" transform="translate(-228.27 -352.01)"/><path class="cls-2" d="M268.61,472.17a7.92,7.92,0,0,1-1.73-1.34,5.49,5.49,0,0,1-1.1-1.48l1.7-1.22a5.7,5.7,0,0,0,.9,1.27,5.09,5.09,0,0,0,1.26,1,3,3,0,0,0,.8.36,1,1,0,0,0,.54,0,.57.57,0,0,0,.33-.26.58.58,0,0,0,0-.57,2.88,2.88,0,0,0-.49-.64c-.23-.22-.48-.46-.76-.71s-.55-.54-.81-.83a4.62,4.62,0,0,1-.64-.92,2.39,2.39,0,0,1-.25-1.05,2.23,2.23,0,0,1,.36-1.19,2.56,2.56,0,0,1,1.15-1.06,3,3,0,0,1,1.71-.25,5.74,5.74,0,0,1,2.15.79,8,8,0,0,1,1.43,1.07,5.88,5.88,0,0,1,1,1.3l-1.66,1.26a6.5,6.5,0,0,0-.85-1.11,4.47,4.47,0,0,0-1-.78,2.67,2.67,0,0,0-.8-.34,1,1,0,0,0-.56,0,.74.74,0,0,0-.34.29.54.54,0,0,0,0,.56,2.56,2.56,0,0,0,.5.62l.76.72c.28.25.55.53.82.82a3.76,3.76,0,0,1,.63.92,2.19,2.19,0,0,1,.25,1,2.23,2.23,0,0,1-.36,1.17,2.67,2.67,0,0,1-1.13,1,3.07,3.07,0,0,1-1.71.25A5.45,5.45,0,0,1,268.61,472.17Z" transform="translate(-228.27 -352.01)"/><path class="cls-2" d="M278.12,476.47l2.29-6.74-2.67-.91.67-1.95,7.78,2.65-.66,2-2.66-.91-2.29,6.74Z" transform="translate(-228.27 -352.01)"/><path class="cls-2" d="M291.62,479.79a4.34,4.34,0,0,1-3-1.45,4.2,4.2,0,0,1-.79-3.27l.55-5.05,2.58.28-.55,5a2.53,2.53,0,0,0,.28,1.73,1.62,1.62,0,0,0,1.22.64,1.6,1.6,0,0,0,1.32-.37,2.53,2.53,0,0,0,.64-1.63l.54-5,2.54.28-.55,5.06a4.24,4.24,0,0,1-1.48,3A4.34,4.34,0,0,1,291.62,479.79Z" transform="translate(-228.27 -352.01)"/><path class="cls-2" d="M301.29,480l-1.22-9.09,4.3-.58a6.1,6.1,0,0,1,2.73.21,4.34,4.34,0,0,1,2,1.33,4.5,4.5,0,0,1,1,2.33,4.27,4.27,0,0,1-1.89,4.32,6.24,6.24,0,0,1-2.58.91Zm2.3-2.39,1.62-.22a3.09,3.09,0,0,0,1.32-.47,2.23,2.23,0,0,0,.79-1,3,3,0,0,0-.36-2.7,2.19,2.19,0,0,0-1-.73,3,3,0,0,0-1.4-.11l-1.62.22Z" transform="translate(-228.27 -352.01)"/><path class="cls-2" d="M315.14,477.39l-2.9-8.7,2.46-.83,2.91,8.71Z" transform="translate(-228.27 -352.01)"/><path class="cls-2" d="M326.56,472.65a5.66,5.66,0,0,1-1.94.69,4.83,4.83,0,0,1-1.9-.08,4.55,4.55,0,0,1-1.68-.79,5,5,0,0,1-1.87-3.31,4.58,4.58,0,0,1,.19-1.84,4.71,4.71,0,0,1,.91-1.67,5.77,5.77,0,0,1,1.6-1.31,5.6,5.6,0,0,1,1.95-.7,5,5,0,0,1,1.89.09,4.67,4.67,0,0,1,1.67.79,4.44,4.44,0,0,1,1.27,1.47,4.75,4.75,0,0,1,.61,1.85,4.58,4.58,0,0,1-.19,1.84,4.75,4.75,0,0,1-.91,1.66A5.83,5.83,0,0,1,326.56,472.65Zm-1.06-1.87a2.67,2.67,0,0,0,.76-.64,2.21,2.21,0,0,0,.43-.85,2.71,2.71,0,0,0,.05-1,2.92,2.92,0,0,0-.37-1,2.8,2.8,0,0,0-.7-.84,2.32,2.32,0,0,0-.86-.46,2.14,2.14,0,0,0-.94-.08,2.69,2.69,0,0,0-1.7,1,2.21,2.21,0,0,0-.43.85,2.67,2.67,0,0,0-.05,1,2.92,2.92,0,0,0,.37,1,2.88,2.88,0,0,0,.69.84,2.47,2.47,0,0,0,.87.47,2.3,2.3,0,0,0,.94.08A2.69,2.69,0,0,0,325.5,470.78Z" transform="translate(-228.27 -352.01)"/><path class="cls-2" d="M287,424.18V446a30.18,30.18,0,0,1-6.19-3V421.27A33,33,0,0,0,287,424.18Z" transform="translate(-228.27 -352.01)"/><path class="cls-2" d="M303.77,403.21a13.21,13.21,0,0,1-12.49,0l6.24-9.82Z" transform="translate(-228.27 -352.01)"/><path class="cls-2" d="M313.23,418.06a29.06,29.06,0,0,1-31.41,0l7.72-12.12a16,16,0,0,0,16,0Z" transform="translate(-228.27 -352.01)"/><path class="cls-2" d="M303.7,425.35v21.82a31.06,31.06,0,0,1-12.35,0V425.35a32.08,32.08,0,0,0,12.35,0Z" transform="translate(-228.27 -352.01)"/><path class="cls-2" d="M314.21,421.27V443a30.91,30.91,0,0,1-6.18,3v-21.8A32.92,32.92,0,0,0,314.21,421.27Z" transform="translate(-228.27 -352.01)"/><circle class="cls-2" cx="23.82" cy="91.3" r="3.61"/><circle class="cls-2" cx="115.64" cy="91.3" r="3.61"/></svg>